<?xml version="1.0" encoding="utf-8"?>
<!-- Generator: Adobe Illustrator 16.0.0, SVG Export Plug-In . SVG Version: 6.00 Build 0)  -->
<!DOCTYPE svg PUBLIC "-//W3C//DTD SVG 1.1//EN" "http://www.w3.org/Graphics/SVG/1.1/DTD/svg11.dtd">
<svg version="1.1" id="Calque_1" xmlns="http://www.w3.org/2000/svg" xmlns:xlink="http://www.w3.org/1999/xlink" x="0px" y="0px"
	 width="432px" height="432px" viewBox="0 0 432 432" enable-background="new 0 0 432 432" xml:space="preserve">
<g>
	<path fill="#F15A29" d="M284.3,288.6c-0.7,2.2-2.5,4.2-5.4,6.1c-2.6,1.7,5-2.1,7.1,5.7c0.9,3.4-0.5-6.5,8.8-2.7
		c1.6,0.6-3.4-3.4-4.4-8.6C288.5,288.9,286.4,288.8,284.3,288.6z"/>
	<path fill="#F15A29" d="M339.9,294.6c-3-2-4.8-4.1-5.5-6.4c-2,0.2-4,0.2-6,0.3c-0.8,5.5-6.1,9.7-4.5,9.1c9.4-3.8,7.9,6.1,8.8,2.7
		C334.9,292.5,342.6,296.3,339.9,294.6z"/>
	<path d="M388.6,278.6c-3.4-6.4-6.5-12.8-9.4-19.4c-5.1-11.6-9.3-23.7-12-36.1c-7-31.6-30.2-47-57.7-47c-27.5,0-50.7,15.4-57.7,47
		c-2.7,12.4-6.9,24.5-12,36.1c-2.9,6.6-6,13-9.4,19.4c-0.2,0.4-0.4,0.8-0.3,1.2c0.2,0.8,1.2,1,2.1,1c8.4-0.2,16.6-3.4,23.1-8.8
		c9.5,16.9,30.3,15.5,54.4,15.5c24.1,0,44.8,1.4,54.4-15.5c6.4,5.4,14.7,8.5,23.1,8.8c0.8,0,1.9-0.2,2.1-1
		C389,279.4,388.8,279,388.6,278.6z M309.4,272.9c-26.4,0-47.8,8.3-47.8-28.4c0-33.5,21-52.5,42-38c3.5,2.4,8.1,2.4,11.6,0
		c21.1-14.6,42,4.5,42,38C357.2,281.1,335.8,272.9,309.4,272.9z"/>
	<g>
		<path d="M307.5,234.8c-0.2,4.9-1.5,10.2-4.9,14.7c-4.9,6.6-12.8,7-18.1,0.7c-5.9-7-7.2-15-3.7-23.6c1.6-3.9,4.5-6.7,8.1-8.7
			c5.8-3.3,12.4-1.1,16,4.9C306.5,225.8,307.5,230.1,307.5,234.8z M294.5,238.4c-2.1-0.1-3.8,0.2-5.4,0.7c-2.4,0.7-3.6,2.2-3.7,4.4
			c-0.1,2.3,0.8,4,2.9,5.1c4,2,10.1-0.6,11.4-4.9c0.8-2.6-0.6-4.9-3.4-5.3C295.6,238.3,294.8,238.4,294.5,238.4z M289.2,234.1
			c-0.3,0.1-0.9,0.1-1.5,0.3c-0.9,0.4-1.8,0.9-1.5,2.1c0.4,1.3,1.5,1.4,2.6,1.2c0.5-0.1,0.9-0.4,1.3-0.6c0.9-0.4,1.8-0.9,1.5-2.1
			C291.3,233.9,290.3,234.1,289.2,234.1z"/>
		<path d="M340,234.8c-0.2,4.9-1.5,10.2-4.9,14.7c-4.9,6.6-12.8,7-18.1,0.7c-5.9-7-7.2-15-3.7-23.6c1.6-3.9,4.5-6.7,8.1-8.7
			c5.8-3.3,12.4-1.1,16,4.9C339,225.8,340,230.1,340,234.8z M326.9,238.4c-2.1-0.1-3.8,0.2-5.4,0.7c-2.4,0.7-3.6,2.2-3.7,4.4
			c-0.1,2.3,0.8,4,2.9,5.1c4,2,10.1-0.6,11.4-4.9c0.8-2.6-0.6-4.9-3.4-5.3C328,238.3,327.3,238.4,326.9,238.4z M321.7,234.1
			c-0.3,0.1-0.9,0.1-1.5,0.3c-0.9,0.4-1.8,0.9-1.5,2.1c0.4,1.3,1.5,1.4,2.6,1.2c0.5-0.1,0.9-0.4,1.3-0.6c0.9-0.4,1.8-0.9,1.5-2.1
			C323.8,233.9,322.8,234.1,321.7,234.1z"/>
	</g>
	<path fill="#F15A29" d="M316.8,254.8C316.8,254.8,316.8,254.8,316.8,254.8c-0.8-0.8-14.9-1-14.9,0.9c0.1,2.2,1.4,3,6.6,11.1
		C310.8,270.3,317.5,255.7,316.8,254.8z"/>
</g>
<g>
	<path fill="#F15A29" d="M95.4,289.5c-0.9,1.8-2.5,3.5-5,5.1c-2.6,1.7,5-2.1,7.1,5.7c0.9,3.4-0.5-6.5,8.8-2.7
		c1.5,0.6-2.7-2.8-4.1-7.5C99.9,289.9,97.7,289.7,95.4,289.5z"/>
	<path fill="#F15A29" d="M151.4,294.6c-2.7-1.8-4.4-3.6-5.2-5.6c-2.2,0.2-4.3,0.4-6.5,0.5c-1.2,5-5.8,8.7-4.3,8.1
		c9.4-3.8,7.9,6.1,8.8,2.7C146.4,292.5,154,296.3,151.4,294.6z"/>
	<path d="M205.9,224.1c-9.2-9.5-17.9-19.5-25.9-30.1c-2.9-35.3-14.7-67.9-59.1-67.9c-39.4,0-52.9,31.2-57.5,65.7
		c-8.4,11.4-17.6,22.2-27.5,32.3c-0.3,0.3-0.6,0.7-0.7,1.1c-0.1,0.8,0.9,1.3,1.7,1.5c8,2.1,16.6,1.5,24.2-1.7
		c-0.1,6.7-0.1,13.3-0.1,19.3c0,46,26.8,43.2,59.9,43.2c33.1,0,59.9,2.7,59.9-43.2c0-6,0.1-12.5,0.1-19.2c7.5,3.1,16.1,3.7,23.9,1.6
		c0.8-0.2,1.8-0.7,1.7-1.5C206.5,224.7,206.2,224.4,205.9,224.1z M120.9,278.1c-26.4,0-47.8,0.8-47.8-28.7
		c0-51.4,9.7-37.9,47.9-37.9c35.1,0,47.7-12.3,47.7,37.9C168.7,278.9,147.3,278.1,120.9,278.1z M120.9,198.4
		c-26.4,0-52.6,14.2-47.8-14.9c10.1-60.6,42.8-37.4,47.9-7.7c4-29.6,36.8-56.8,47.7,7.7C173.6,212.5,147.3,198.4,120.9,198.4z"/>
	<g>
		<path d="M113,173.8c-0.2,4.9-1.5,10.2-4.9,14.7c-4.9,6.6-12.8,7-18.1,0.7c-5.9-7-7.2-15-3.7-23.6c1.6-3.9,4.5-6.7,8.1-8.7
			c5.8-3.3,12.4-1.1,16,4.9C112,164.8,113.1,169.1,113,173.8z M100,177.4c-2.1-0.1-3.8,0.2-5.4,0.7c-2.4,0.7-3.6,2.2-3.7,4.4
			c-0.1,2.3,0.8,4,2.9,5.1c4,2,10.1-0.6,11.4-4.9c0.8-2.6-0.6-4.9-3.4-5.3C101.1,177.3,100.4,177.4,100,177.4z M94.7,173.1
			c-0.3,0.1-0.9,0.1-1.5,0.3c-0.9,0.4-1.8,0.9-1.5,2.1c0.4,1.3,1.5,1.4,2.6,1.2c0.5-0.1,0.9-0.4,1.3-0.6c0.9-0.4,1.8-0.9,1.5-2.1
			C96.9,172.9,95.9,173.1,94.7,173.1z"/>
		<path d="M157.5,173.8c-0.2,4.9-1.5,10.2-4.9,14.7c-4.9,6.6-12.8,7-18.1,0.7c-5.9-7-7.2-15-3.7-23.6c1.6-3.9,4.5-6.7,8.1-8.7
			c5.8-3.3,12.4-1.1,16,4.9C156.5,164.8,157.5,169.1,157.5,173.8z M144.5,177.4c-2.1-0.1-3.8,0.2-5.4,0.7c-2.4,0.7-3.6,2.2-3.7,4.4
			c-0.1,2.3,0.8,4,2.9,5.1c4,2,10.1-0.6,11.4-4.9c0.8-2.6-0.6-4.9-3.4-5.3C145.6,177.3,144.8,177.4,144.5,177.4z M139.2,173.1
			c-0.3,0.1-0.9,0.1-1.5,0.3c-0.9,0.4-1.8,0.9-1.5,2.1c0.4,1.3,1.5,1.4,2.6,1.2c0.5-0.1,0.9-0.4,1.3-0.6c0.9-0.4,1.8-0.9,1.5-2.1
			C141.3,172.9,140.3,173.1,139.2,173.1z"/>
		<path fill="#F15A29" d="M128.4,182.6C128.4,182.6,128.4,182.6,128.4,182.6c-0.8-0.8-14.9-1-14.9,0.9c0.1,2.2,1.4,3,6.6,11.1
			C122.4,198.1,129,183.5,128.4,182.6z"/>
	</g>
</g>
</svg>
